<?xml version="1.0" encoding="utf-8"?>
<!-- Generator: Adobe Illustrator 21.0.1, SVG Export Plug-In . SVG Version: 6.00 Build 0)  -->
<svg version="1.1" id="Layer_1" xmlns="http://www.w3.org/2000/svg" xmlns:xlink="http://www.w3.org/1999/xlink" x="0px" y="0px"
	 viewBox="0 0 281.4 343.4" style="enable-background:new 0 0 281.4 343.4;" xml:space="preserve">
<style type="text/css">
	.st0{fill:#949D93;}
	.st1{fill:#89B4A6;}
	.st2{fill:#5C5D60;}
</style>
<g id="title">
	<path class="st0" d="M18.7,330.8v9.1c0,2.2-1.1,3.3-3.5,3.3h-3.6v-15.7h3.6C17.6,327.5,18.7,328.7,18.7,330.8z M15.1,328.4h-2.6v14
		h2.6c2,0,2.7-0.9,2.7-2.9v-8.3C17.8,329.2,17.1,328.4,15.1,328.4z"/>
	<path class="st0" d="M48.8,343.2v-15.7h6v0.9h-5.1v6.5h4.4v0.9h-4.4v6.7h5.2v0.9H48.8z"/>
	<path class="st0" d="M89.9,332.9v-2c0-1.9-0.7-2.7-2.5-2.7c-1.9,0-2.5,0.9-2.5,2.7v1.1c0,1.3,0.4,1.6,1.7,2.2l2.5,1.4
		c1,0.5,1.8,1.5,1.8,2.5v2c0,2.2-1.1,3.3-3.4,3.3h0c-2.4,0-3.4-1.1-3.4-3.3v-2.5h0.9v2.2c0,1.9,0.7,2.8,2.6,2.8s2.6-0.9,2.6-2.8
		v-1.3c0-1.3-0.5-1.7-1.8-2.4l-2.5-1.3c-1.3-0.7-1.7-1.3-1.7-2.5v-1.8c0-2.1,1.3-3.2,3.4-3.2h0c2.2,0,3.4,1.1,3.4,3.2v2.3H89.9z"/>
	<path class="st0" d="M120.7,343.2v-15.7h0.9v15.7H120.7z"/>
	<path class="st0" d="M159,340.1c0,2.2-1.1,3.3-3.5,3.3h-0.2c-2.4,0-3.5-1.1-3.5-3.3v-9.4c0-2.1,1.1-3.3,3.5-3.3h0.2
		c2.4,0,3.5,1.2,3.5,3.3v2h-0.9v-1.6c0-2-0.7-2.9-2.7-2.9c-2,0-2.7,0.9-2.7,2.9v8.6c0,2,0.7,2.9,2.7,2.9c2,0,2.7-0.9,2.7-2.9v-3.3
		h-2.8v-0.9h3.7V340.1z"/>
	<path class="st0" d="M189,343.2v-15.7h0.9l5.6,13.6v-13.6h0.9v15.7h-0.9l-5.6-13.6v13.6H189z"/>
	<path class="st0" d="M226.5,343.2v-15.7h6v0.9h-5.1v6.5h4.4v0.9h-4.4v6.7h5.2v0.9H226.5z"/>
	<path class="st0" d="M268.8,343.2l-2.7-6.9h-0.3H263v6.9h-0.9v-15.7h3.6c2.4,0,3.5,1.2,3.5,3.3v2.2c0,1.7-0.7,2.8-2.2,3.2l2.8,7
		H268.8z M268.3,332.6v-1.4c0-2-0.7-2.9-2.7-2.9H263v7.1h2.6C267.6,335.5,268.3,334.6,268.3,332.6z"/>
</g>
<g id="name">
	<path class="st1" d="M0,321.7l5.3-36.9h0.6l15,30.3l14.9-30.3h0.6l5.3,36.9h-3.6l-3.6-26.4l-13.1,26.4h-0.9L7.2,295l-3.6,26.6H0z"
		/>
	<path class="st2" d="M47.6,295.8h14.8v2.5H50.2v8.1h12.1v2.5H50.2v10.2h12.1v2.5H47.6V295.8z"/>
	<path class="st2" d="M66.9,295.8h2.6v23.4h9.9v2.5H66.9V295.8z"/>
	<path class="st2" d="M83.1,295.8h2.6v25.9h-2.6V295.8z"/>
	<path class="st2" d="M89,316.8l2.2-1.3c1.5,2.8,3.3,4.3,5.4,4.3c0.9,0,1.7-0.2,2.4-0.6c0.8-0.4,1.3-0.9,1.7-1.6
		c0.4-0.7,0.6-1.4,0.6-2.2c0-0.9-0.3-1.7-0.9-2.5c-0.8-1.1-2.3-2.5-4.4-4.1c-2.2-1.6-3.5-2.8-4-3.5c-0.9-1.2-1.4-2.5-1.4-4
		c0-1.1,0.3-2.1,0.8-3.1c0.5-0.9,1.3-1.7,2.3-2.2c1-0.5,2-0.8,3.2-0.8c1.2,0,2.4,0.3,3.4,0.9c1.1,0.6,2.2,1.7,3.4,3.3l-2.1,1.6
		c-1-1.3-1.8-2.1-2.5-2.5c-0.7-0.4-1.4-0.6-2.2-0.6c-1,0-1.9,0.3-2.6,0.9c-0.7,0.6-1,1.4-1,2.3c0,0.6,0.1,1.1,0.4,1.6
		c0.2,0.5,0.7,1.1,1.3,1.7c0.3,0.3,1.5,1.2,3.3,2.6c2.2,1.7,3.8,3.1,4.6,4.4c0.8,1.3,1.2,2.6,1.2,3.9c0,1.9-0.7,3.5-2.1,4.9
		c-1.4,1.4-3.2,2.1-5.2,2.1c-1.6,0-3-0.4-4.3-1.3C91.2,320.2,90.1,318.8,89,316.8z"/>
	<path class="st2" d="M106.9,316.8l2.2-1.3c1.5,2.8,3.3,4.3,5.4,4.3c0.9,0,1.7-0.2,2.4-0.6c0.8-0.4,1.3-0.9,1.7-1.6
		c0.4-0.7,0.6-1.4,0.6-2.2c0-0.9-0.3-1.7-0.9-2.5c-0.8-1.1-2.3-2.5-4.4-4.1c-2.2-1.6-3.5-2.8-4-3.5c-0.9-1.2-1.4-2.5-1.4-4
		c0-1.1,0.3-2.1,0.8-3.1c0.5-0.9,1.3-1.7,2.3-2.2c1-0.5,2-0.8,3.2-0.8c1.2,0,2.4,0.3,3.4,0.9c1.1,0.6,2.2,1.7,3.4,3.3l-2.1,1.6
		c-1-1.3-1.8-2.1-2.5-2.5c-0.7-0.4-1.4-0.6-2.2-0.6c-1,0-1.9,0.3-2.6,0.9c-0.7,0.6-1,1.4-1,2.3c0,0.6,0.1,1.1,0.4,1.6
		c0.2,0.5,0.7,1.1,1.3,1.7c0.3,0.3,1.5,1.2,3.3,2.6c2.2,1.7,3.8,3.1,4.6,4.4c0.8,1.3,1.2,2.6,1.2,3.9c0,1.9-0.7,3.5-2.1,4.9
		c-1.4,1.4-3.2,2.1-5.2,2.1c-1.6,0-3-0.4-4.3-1.3C109.2,320.2,108,318.8,106.9,316.8z"/>
	<path class="st2" d="M138.1,295.8l12.1,25.9h-2.8l-4.1-8.5h-11.1l-4,8.5h-2.9l12.2-25.9H138.1z M137.7,301.3l-4.4,9.4h8.8
		L137.7,301.3z"/>
	<path class="st1" d="M154.5,284.7h3.8l7.5,26.6l10.6-26.6h0.8l10.5,26.6l7.7-26.6h3.8l-10.6,36.9h-0.7l-11-27.9l-11.2,27.9h-0.7
		L154.5,284.7z"/>
	<path class="st2" d="M211.5,295.2c3.9,0,7.2,1.3,9.8,3.9c2.6,2.6,4,5.8,4,9.6c0,3.8-1.3,7-3.9,9.6c-2.6,2.6-5.8,4-9.6,4
		c-3.8,0-7.1-1.3-9.7-3.9c-2.6-2.6-4-5.8-4-9.5c0-2.5,0.6-4.8,1.8-6.9c1.2-2.1,2.8-3.8,4.9-5C206.8,295.8,209.1,295.2,211.5,295.2z
		 M211.6,297.7c-1.9,0-3.7,0.5-5.4,1.5c-1.7,1-3.1,2.3-4,4c-1,1.7-1.4,3.6-1.4,5.6c0,3.1,1.1,5.7,3.2,7.8c2.1,2.1,4.7,3.2,7.7,3.2
		c2,0,3.9-0.5,5.6-1.5c1.7-1,3-2.3,4-4c1-1.7,1.4-3.6,1.4-5.6c0-2.1-0.5-3.9-1.4-5.6c-1-1.7-2.3-3-4-4
		C215.4,298.2,213.6,297.7,211.6,297.7z"/>
	<path class="st2" d="M229.4,321.7v-25.9h0.6l17.2,19.8v-19.8h2.5v25.9h-0.6l-17.1-19.6v19.6H229.4z"/>
	<path class="st2" d="M279.9,300.1l-2,1.9c-1.4-1.4-3-2.5-4.7-3.2c-1.7-0.7-3.4-1.1-5-1.1c-2,0-4,0.5-5.8,1.5
		c-1.8,1-3.3,2.3-4.3,4.1c-1,1.7-1.5,3.5-1.5,5.4c0,1.9,0.5,3.8,1.6,5.5c1,1.8,2.5,3.1,4.3,4.1c1.8,1,3.9,1.5,6,1.5
		c2.7,0,4.9-0.7,6.7-2.2c1.8-1.5,2.9-3.4,3.3-5.8h-8.2v-2.5h11.1c0,4-1.2,7.2-3.6,9.5c-2.3,2.3-5.5,3.5-9.4,3.5
		c-4.8,0-8.6-1.6-11.4-4.9c-2.1-2.5-3.2-5.4-3.2-8.7c0-2.4,0.6-4.7,1.8-6.8c1.2-2.1,2.9-3.8,5.1-4.9c2.1-1.2,4.6-1.8,7.3-1.8
		c2.2,0,4.3,0.4,6.2,1.2S278.1,298.4,279.9,300.1z"/>
</g>
<g>
	<g>
		<polygon class="st1" points="18.2,13.5 85.6,128.7 140.2,61.6 196,128.5 259.5,13.5 		"/>
		<g>
			<polygon class="st2" points="18.6,41.6 18.6,260.3 140.8,260.3 72.2,135.5 			"/>
			<polygon class="st2" points="209.4,135.5 140.8,260.3 262.9,260.3 262.9,34.7 			"/>
		</g>
		<polygon class="st0" points="140.8,82.9 92.3,141.8 140.6,232.4 190.1,142.4 		"/>
	</g>
	<path class="st0" d="M3.7,0v273.7h273.7V0H3.7z M276.3,272.6H4.8V1.1h271.5V272.6z"/>
</g>
</svg>
